<svg xmlns="http://www.w3.org/2000/svg" width="512" height="512" viewBox="0 0 512 512" fill="none"><g clip-path="url(#clip0_421_975)"><path d="M511.6 117.242V63.941C511.6 52.169 502.061 42.629 490.289 42.629H85.2782C73.5062 42.629 63.9512 52.168 63.9512 63.941V117.243L511.6 117.242Z" fill="#E6E9ED"></path><path d="M511.6 405.026H449.18H63.9502V85.268H511.6V308.413V405.026Z" fill="#F5F7FA"></path><path d="M106.588 63.941C106.588 69.827 101.811 74.604 95.9253 74.604C90.0393 74.604 85.2783 69.827 85.2783 63.941C85.2783 58.054 90.0403 53.293 95.9253 53.293C101.81 53.293 106.588 58.054 106.588 63.941Z" fill="#ED5564"></path><path d="M138.564 63.941C138.564 69.827 133.787 74.604 127.9 74.604C122.014 74.604 117.253 69.827 117.253 63.941C117.253 58.054 122.015 53.293 127.9 53.293C133.786 53.292 138.564 58.054 138.564 63.941Z" fill="#FFCE54"></path><path d="M170.538 63.941C170.538 69.827 165.761 74.604 159.875 74.604C153.989 74.604 149.227 69.827 149.227 63.941C149.227 58.054 153.99 53.293 159.875 53.293C165.76 53.293 170.538 58.054 170.538 63.941Z" fill="#A0D468"></path><path d="M468.98 298.422H298.44V405.022H468.98V298.422Z" fill="#F05742"></path><path d="M468.98 127.892H106.59V277.132H468.98V127.892Z" fill="#FFBF9D"></path><path d="M394.363 191.839H181.202C175.316 191.839 170.538 196.616 170.538 202.503C170.538 208.389 175.316 213.166 181.202 213.166H394.363C400.25 213.166 405.027 208.389 405.027 202.503C405.028 196.617 400.25 191.839 394.363 191.839Z" fill="#434A54"></path><path d="M362.389 353.066H0V234.479L63.95 191.839H298.439L362.389 234.479V353.066Z" fill="#434A54"></path><path d="M362.39 234.481H0V362.371H362.39V234.481Z" fill="#656D78"></path><path d="M319.75 287.773C319.75 299.544 310.211 309.099 298.438 309.099C286.665 309.099 277.126 299.544 277.126 287.773C277.126 276.001 286.665 266.453 298.438 266.453C310.211 266.453 319.75 276.001 319.75 287.773Z" fill="#F05742"></path><path d="M82.1536 269.576C77.9846 265.407 71.2406 265.407 67.0716 269.576L45.7596 290.895C41.5906 295.048 41.5906 301.792 45.7596 305.977C47.8356 308.038 50.5686 309.099 53.3006 309.099C56.0176 309.099 58.7496 308.037 60.8256 305.977L82.1526 284.65C86.3076 280.497 86.3076 273.722 82.1536 269.576Z" fill="#434A54"></path><path d="M124.777 269.576C120.624 265.407 113.864 265.407 109.711 269.576L88.3992 290.896C84.2302 295.049 84.2302 301.793 88.3992 305.978C90.4752 308.039 93.2082 309.1 95.9242 309.1C98.6562 309.1 101.389 308.038 103.465 305.978L124.777 284.651C128.945 280.497 128.945 273.722 124.777 269.576Z" fill="#434A54"></path><path d="M167.416 269.576C163.247 265.407 156.503 265.407 152.35 269.576L131.023 290.895C126.87 295.048 126.87 301.792 131.023 305.977C133.099 308.038 135.832 309.099 138.564 309.099C141.296 309.099 144.013 308.037 146.105 305.977L167.417 284.65C171.584 280.497 171.584 273.722 167.416 269.576Z" fill="#434A54"></path><path d="M362.39 341.072H0V468.972H362.39V341.072Z" fill="#656D78"></path><path d="M362.39 330.392H0V351.719H362.39V330.392Z" fill="#434A54"></path><path d="M319.75 415.673C319.75 427.445 310.211 437 298.438 437C286.665 437 277.126 427.445 277.126 415.673C277.126 403.902 286.665 394.346 298.438 394.346C310.211 394.346 319.75 403.902 319.75 415.673Z" fill="#F05742"></path><path d="M82.1536 397.469C77.9846 393.316 71.2406 393.316 67.0716 397.469L45.7596 418.796C41.5906 422.948 41.5906 429.693 45.7596 433.878C47.8356 435.939 50.5686 437 53.3006 437C56.0176 437 58.7496 435.938 60.8256 433.878L82.1526 412.551C86.3076 408.398 86.3076 401.621 82.1536 397.469Z" fill="#434A54"></path><path d="M124.777 397.469C120.624 393.316 113.864 393.316 109.711 397.469L88.3992 418.796C84.2302 422.948 84.2302 429.693 88.3992 433.878C90.4752 435.939 93.2082 437 95.9242 437C98.6562 437 101.389 435.938 103.465 433.878L124.777 412.551C128.945 408.398 128.945 401.621 124.777 397.469Z" fill="#434A54"></path><path d="M167.416 397.469C163.247 393.316 156.503 393.316 152.35 397.469L131.023 418.796C126.87 422.948 126.87 429.693 131.023 433.878C133.099 435.939 135.832 437 138.564 437C141.296 437 144.013 435.938 146.105 433.878L167.417 412.551C171.584 408.398 171.584 401.621 167.416 397.469Z" fill="#434A54"></path></g><defs><clipPath id="clip0_421_975"><rect width="511.6" height="511.6" fill="white"></rect></clipPath></defs></svg>